<?xml version="1.0" encoding="iso-8859-1"?>
<!-- Generator: Adobe Illustrator 19.0.0, SVG Export Plug-In . SVG Version: 6.00 Build 0)  -->
<svg version="1.1" id="Capa_1" xmlns="http://www.w3.org/2000/svg" xmlns:xlink="http://www.w3.org/1999/xlink" x="0px" y="0px"
	 viewBox="0 0 512 512" style="enable-background:new 0 0 512 512;" xml:space="preserve">
<g>
	<g>
		<path d="M256,0C114.837,0,0,114.837,0,256s114.837,256,256,256s256-114.837,256-256S397.163,0,256,0z M362.667,362.667H149.333
			c-11.797,0-21.333-9.557-21.333-21.333c0-11.776,9.536-21.333,21.333-21.333h213.333c11.797,0,21.333,9.557,21.333,21.333
			C384,353.109,374.464,362.667,362.667,362.667z M362.667,277.333H149.333C137.536,277.333,128,267.776,128,256
			s9.536-21.333,21.333-21.333h213.333c11.797,0,21.333,9.557,21.333,21.333S374.464,277.333,362.667,277.333z M362.667,192H149.333
			C137.536,192,128,182.443,128,170.667s9.536-21.333,21.333-21.333h213.333c11.797,0,21.333,9.557,21.333,21.333
			S374.464,192,362.667,192z"/>
	</g>
</g>
<g>
</g>
<g>
</g>
<g>
</g>
<g>
</g>
<g>
</g>
<g>
</g>
<g>
</g>
<g>
</g>
<g>
</g>
<g>
</g>
<g>
</g>
<g>
</g>
<g>
</g>
<g>
</g>
<g>
</g>
</svg>
